<mxfile host="app.diagrams.net" modified="2023-07-10T16:36:08.303Z" agent="Mozilla/5.0 (X11; Linux x86_64) AppleWebKit/537.36 (KHTML, like Gecko) Chrome/114.0.0.0 Safari/537.36" etag="6FVCC6Tr8pEctfRi-K49" version="21.6.1" type="github">
  <diagram name="PÃ¡gina-1" id="U09H-SSrCiXjcYHxB3I6">
    <mxGraphModel dx="2349" dy="1467" grid="1" gridSize="10" guides="1" tooltips="1" connect="1" arrows="1" fold="1" page="1" pageScale="1" pageWidth="1169" pageHeight="827" background="none" math="0" shadow="0">
      <root>
        <mxCell id="0" />
        <mxCell id="1" parent="0" />
        <mxCell id="Gvlh0brdfd21mCTL1ysy-1" value="" style="rounded=0;whiteSpace=wrap;html=1;" parent="1" vertex="1">
          <mxGeometry x="400" y="499" width="120" height="90" as="geometry" />
        </mxCell>
        <mxCell id="Gvlh0brdfd21mCTL1ysy-3" value="Read Reg 1" style="text;html=1;strokeColor=none;fillColor=none;align=left;verticalAlign=middle;whiteSpace=wrap;rounded=0;fontSize=6;fontStyle=1" parent="1" vertex="1">
          <mxGeometry x="400" y="509" width="52" height="20" as="geometry" />
        </mxCell>
        <mxCell id="Gvlh0brdfd21mCTL1ysy-4" value="Read Reg 2" style="text;html=1;strokeColor=none;fillColor=none;align=left;verticalAlign=middle;whiteSpace=wrap;rounded=0;fontSize=6;fontStyle=1" parent="1" vertex="1">
          <mxGeometry x="400" y="521.5" width="52" height="20" as="geometry" />
        </mxCell>
        <mxCell id="Gvlh0brdfd21mCTL1ysy-5" value="Write Data" style="text;html=1;strokeColor=none;fillColor=none;align=left;verticalAlign=middle;whiteSpace=wrap;rounded=0;fontSize=6;fontStyle=1" parent="1" vertex="1">
          <mxGeometry x="400" y="569" width="50" height="20" as="geometry" />
        </mxCell>
        <mxCell id="Gvlh0brdfd21mCTL1ysy-6" value="Write Reg" style="text;html=1;strokeColor=none;fillColor=none;align=left;verticalAlign=middle;whiteSpace=wrap;rounded=0;fontSize=6;fontStyle=1" parent="1" vertex="1">
          <mxGeometry x="400" y="535.5" width="50" height="20" as="geometry" />
        </mxCell>
        <mxCell id="xivKOrNHY8w8_7kdoRQL-14" style="edgeStyle=orthogonalEdgeStyle;shape=connector;rounded=0;orthogonalLoop=1;jettySize=auto;html=1;entryX=0.314;entryY=1.024;entryDx=0;entryDy=0;entryPerimeter=0;labelBackgroundColor=default;strokeColor=default;fontFamily=Helvetica;fontSize=11;fontColor=default;endArrow=none;endFill=0;" edge="1" parent="1" source="Gvlh0brdfd21mCTL1ysy-7" target="2e7VlRh2Dpikmwv9G9NX-17">
          <mxGeometry relative="1" as="geometry" />
        </mxCell>
        <mxCell id="Gvlh0brdfd21mCTL1ysy-7" value="Read Data 1" style="text;html=1;strokeColor=none;fillColor=none;align=right;verticalAlign=middle;whiteSpace=wrap;rounded=0;fontSize=6;fontStyle=1" parent="1" vertex="1">
          <mxGeometry x="460" y="519" width="60" height="20" as="geometry" />
        </mxCell>
        <mxCell id="xivKOrNHY8w8_7kdoRQL-13" style="edgeStyle=orthogonalEdgeStyle;shape=connector;rounded=0;orthogonalLoop=1;jettySize=auto;html=1;entryX=0.393;entryY=1.074;entryDx=0;entryDy=0;entryPerimeter=0;labelBackgroundColor=default;strokeColor=default;fontFamily=Helvetica;fontSize=11;fontColor=default;endArrow=none;endFill=0;" edge="1" parent="1" source="Gvlh0brdfd21mCTL1ysy-8" target="2e7VlRh2Dpikmwv9G9NX-17">
          <mxGeometry relative="1" as="geometry" />
        </mxCell>
        <mxCell id="Gvlh0brdfd21mCTL1ysy-8" value="Read Data 2" style="text;html=1;strokeColor=none;fillColor=none;align=right;verticalAlign=middle;whiteSpace=wrap;rounded=0;fontSize=6;fontStyle=1" parent="1" vertex="1">
          <mxGeometry x="460" y="549" width="60" height="20" as="geometry" />
        </mxCell>
        <mxCell id="Gvlh0brdfd21mCTL1ysy-9" value="RegWrite" style="text;html=1;strokeColor=none;fillColor=none;align=center;verticalAlign=middle;whiteSpace=wrap;rounded=0;fontSize=6;fontStyle=1" parent="1" vertex="1">
          <mxGeometry x="470" y="499" width="46" height="10" as="geometry" />
        </mxCell>
        <mxCell id="Gvlh0brdfd21mCTL1ysy-10" value="REGISTRADORES" style="text;html=1;strokeColor=none;fillColor=none;align=center;verticalAlign=middle;whiteSpace=wrap;rounded=0;fontSize=6;fontStyle=1" parent="1" vertex="1">
          <mxGeometry x="460" y="569" width="60" height="20" as="geometry" />
        </mxCell>
        <mxCell id="Gvlh0brdfd21mCTL1ysy-11" value="" style="rounded=0;whiteSpace=wrap;html=1;direction=south;" parent="1" vertex="1">
          <mxGeometry x="471.85" y="230.37" width="110" height="140" as="geometry" />
        </mxCell>
        <mxCell id="Gvlh0brdfd21mCTL1ysy-12" value="CONTROLADORA" style="text;html=1;strokeColor=none;fillColor=none;align=center;verticalAlign=middle;whiteSpace=wrap;rounded=0;fontSize=6;fontStyle=1;rotation=0;" parent="1" vertex="1">
          <mxGeometry x="496.85" y="350.37" width="60" height="20" as="geometry" />
        </mxCell>
        <mxCell id="Gvlh0brdfd21mCTL1ysy-14" value="OPCode" style="text;html=1;strokeColor=none;fillColor=none;align=left;verticalAlign=middle;whiteSpace=wrap;rounded=0;fontSize=6;fontStyle=1" parent="1" vertex="1">
          <mxGeometry x="471.85" y="330.37" width="60" height="20" as="geometry" />
        </mxCell>
        <mxCell id="Gvlh0brdfd21mCTL1ysy-16" value="AluCnt" style="text;html=1;strokeColor=none;fillColor=none;align=right;verticalAlign=middle;whiteSpace=wrap;rounded=0;fontSize=6;fontStyle=1" parent="1" vertex="1">
          <mxGeometry x="521.9999999999999" y="330.37" width="60" height="20" as="geometry" />
        </mxCell>
        <mxCell id="Gvlh0brdfd21mCTL1ysy-17" value="MemW" style="text;html=1;strokeColor=none;fillColor=none;align=right;verticalAlign=middle;whiteSpace=wrap;rounded=0;fontSize=6;fontStyle=1" parent="1" vertex="1">
          <mxGeometry x="521.8399999999999" y="230" width="60" height="20" as="geometry" />
        </mxCell>
        <mxCell id="Gvlh0brdfd21mCTL1ysy-18" value="MemR" style="text;html=1;strokeColor=none;fillColor=none;align=right;verticalAlign=middle;whiteSpace=wrap;rounded=0;fontSize=6;fontStyle=1" parent="1" vertex="1">
          <mxGeometry x="521.9899999999999" y="250.37" width="60" height="20" as="geometry" />
        </mxCell>
        <mxCell id="Gvlh0brdfd21mCTL1ysy-19" value="Jump" style="text;html=1;strokeColor=none;fillColor=none;align=left;verticalAlign=middle;whiteSpace=wrap;rounded=0;fontSize=6;fontStyle=1" parent="1" vertex="1">
          <mxGeometry x="471.8399999999999" y="310.36" width="60" height="20" as="geometry" />
        </mxCell>
        <mxCell id="Gvlh0brdfd21mCTL1ysy-20" value="SelectIn" style="text;html=1;strokeColor=none;fillColor=none;align=right;verticalAlign=middle;whiteSpace=wrap;rounded=0;fontSize=6;fontStyle=1" parent="1" vertex="1">
          <mxGeometry x="521.84" y="270.36" width="60" height="20" as="geometry" />
        </mxCell>
        <mxCell id="Gvlh0brdfd21mCTL1ysy-23" value="Branch" style="text;html=1;strokeColor=none;fillColor=none;align=left;verticalAlign=middle;whiteSpace=wrap;rounded=0;fontSize=6;fontStyle=1" parent="1" vertex="1">
          <mxGeometry x="472.14" y="290.37" width="36.29" height="20" as="geometry" />
        </mxCell>
        <mxCell id="Gvlh0brdfd21mCTL1ysy-35" value="" style="rounded=0;whiteSpace=wrap;html=1;" parent="1" vertex="1">
          <mxGeometry x="193.75" y="490.5" width="80" height="65" as="geometry" />
        </mxCell>
        <mxCell id="Gvlh0brdfd21mCTL1ysy-36" value="INSTRUCTION&amp;nbsp;&lt;br&gt;MEMORY" style="text;html=1;strokeColor=none;fillColor=none;align=center;verticalAlign=middle;whiteSpace=wrap;rounded=0;fontSize=6;fontStyle=1" parent="1" vertex="1">
          <mxGeometry x="203.75" y="533" width="60" height="20" as="geometry" />
        </mxCell>
        <mxCell id="xivKOrNHY8w8_7kdoRQL-1" style="edgeStyle=orthogonalEdgeStyle;rounded=0;orthogonalLoop=1;jettySize=auto;html=1;endArrow=none;endFill=0;entryX=0.29;entryY=0.987;entryDx=0;entryDy=0;entryPerimeter=0;" edge="1" parent="1" source="Gvlh0brdfd21mCTL1ysy-37" target="2e7VlRh2Dpikmwv9G9NX-2">
          <mxGeometry relative="1" as="geometry">
            <mxPoint x="315" y="519" as="targetPoint" />
          </mxGeometry>
        </mxCell>
        <mxCell id="xivKOrNHY8w8_7kdoRQL-22" style="edgeStyle=orthogonalEdgeStyle;shape=connector;rounded=0;orthogonalLoop=1;jettySize=auto;html=1;entryX=1;entryY=0.75;entryDx=0;entryDy=0;labelBackgroundColor=default;strokeColor=default;fontFamily=Helvetica;fontSize=11;fontColor=default;endArrow=none;endFill=0;" edge="1" parent="1" source="Gvlh0brdfd21mCTL1ysy-37" target="Nmrm6_6fbguC6e-CNsKx-112">
          <mxGeometry relative="1" as="geometry">
            <Array as="points">
              <mxPoint x="298" y="520" />
              <mxPoint x="298" y="600" />
              <mxPoint x="78" y="600" />
              <mxPoint x="78" y="515" />
            </Array>
          </mxGeometry>
        </mxCell>
        <mxCell id="Gvlh0brdfd21mCTL1ysy-37" value="Mem&lt;br&gt;Data" style="text;html=1;strokeColor=none;fillColor=none;align=right;verticalAlign=middle;whiteSpace=wrap;rounded=0;fontSize=6;fontStyle=1" parent="1" vertex="1">
          <mxGeometry x="233.75" y="509.5" width="40.25" height="20" as="geometry" />
        </mxCell>
        <mxCell id="Gvlh0brdfd21mCTL1ysy-142" style="edgeStyle=orthogonalEdgeStyle;shape=connector;rounded=0;orthogonalLoop=1;jettySize=auto;html=1;exitX=0;exitY=0.5;exitDx=0;exitDy=0;entryX=1;entryY=0.5;entryDx=0;entryDy=0;labelBackgroundColor=default;strokeColor=default;fontFamily=Helvetica;fontSize=11;fontColor=default;endArrow=none;endFill=0;" parent="1" target="Gvlh0brdfd21mCTL1ysy-48" edge="1">
          <mxGeometry relative="1" as="geometry">
            <mxPoint x="193.75000000000006" y="506.50000000000006" as="sourcePoint" />
            <Array as="points">
              <mxPoint x="194" y="505" />
              <mxPoint x="164" y="505" />
            </Array>
          </mxGeometry>
        </mxCell>
        <mxCell id="Gvlh0brdfd21mCTL1ysy-38" value="Address" style="text;html=1;strokeColor=none;fillColor=none;align=center;verticalAlign=middle;whiteSpace=wrap;rounded=0;fontSize=6;fontStyle=1" parent="1" vertex="1">
          <mxGeometry x="193.75" y="495.5" width="40" height="20" as="geometry" />
        </mxCell>
        <mxCell id="Gvlh0brdfd21mCTL1ysy-39" value="Write Data" style="text;html=1;strokeColor=none;fillColor=none;align=center;verticalAlign=middle;whiteSpace=wrap;rounded=0;fontSize=6;fontStyle=1" parent="1" vertex="1">
          <mxGeometry x="183.75" y="514.5" width="60" height="20" as="geometry" />
        </mxCell>
        <mxCell id="Gvlh0brdfd21mCTL1ysy-48" value="" style="rounded=0;whiteSpace=wrap;html=1;" parent="1" vertex="1">
          <mxGeometry x="143.75" y="490" width="20" height="30" as="geometry" />
        </mxCell>
        <mxCell id="Gvlh0brdfd21mCTL1ysy-49" value="PC" style="text;html=1;strokeColor=none;fillColor=none;align=center;verticalAlign=middle;whiteSpace=wrap;rounded=0;fontSize=6;fontStyle=1" parent="1" vertex="1">
          <mxGeometry x="146.25" y="494.5" width="15" height="20" as="geometry" />
        </mxCell>
        <mxCell id="Gvlh0brdfd21mCTL1ysy-144" style="edgeStyle=orthogonalEdgeStyle;shape=connector;rounded=0;orthogonalLoop=1;jettySize=auto;html=1;exitX=1;exitY=0.5;exitDx=0;exitDy=0;entryX=0;entryY=0.5;entryDx=0;entryDy=0;labelBackgroundColor=default;strokeColor=default;fontFamily=Helvetica;fontSize=11;fontColor=default;endArrow=none;endFill=0;" parent="1" edge="1">
          <mxGeometry relative="1" as="geometry">
            <mxPoint x="122" y="505" as="sourcePoint" />
            <mxPoint x="143.75" y="507" as="targetPoint" />
          </mxGeometry>
        </mxCell>
        <mxCell id="xivKOrNHY8w8_7kdoRQL-40" style="edgeStyle=orthogonalEdgeStyle;shape=connector;rounded=0;orthogonalLoop=1;jettySize=auto;html=1;entryX=0.504;entryY=0.961;entryDx=0;entryDy=0;entryPerimeter=0;labelBackgroundColor=default;strokeColor=default;fontFamily=Helvetica;fontSize=11;fontColor=default;endArrow=none;endFill=0;" edge="1" parent="1" source="Gvlh0brdfd21mCTL1ysy-54" target="2e7VlRh2Dpikmwv9G9NX-23">
          <mxGeometry relative="1" as="geometry" />
        </mxCell>
        <mxCell id="Gvlh0brdfd21mCTL1ysy-54" value="" style="rounded=0;whiteSpace=wrap;html=1;" parent="1" vertex="1">
          <mxGeometry x="1010" y="587.63" width="70" height="67.5" as="geometry" />
        </mxCell>
        <mxCell id="Gvlh0brdfd21mCTL1ysy-55" value="DATA&lt;br&gt;MEMORY" style="text;html=1;strokeColor=none;fillColor=none;align=center;verticalAlign=middle;whiteSpace=wrap;rounded=0;fontSize=6;fontStyle=1" parent="1" vertex="1">
          <mxGeometry x="1015" y="634.63" width="60" height="17.5" as="geometry" />
        </mxCell>
        <mxCell id="Gvlh0brdfd21mCTL1ysy-56" value="Read&lt;br&gt;Data" style="text;html=1;strokeColor=none;fillColor=none;align=center;verticalAlign=middle;whiteSpace=wrap;rounded=0;fontSize=6;fontStyle=1" parent="1" vertex="1">
          <mxGeometry x="1060" y="613.38" width="20" height="20" as="geometry" />
        </mxCell>
        <mxCell id="Gvlh0brdfd21mCTL1ysy-57" value="Address" style="text;html=1;strokeColor=none;fillColor=none;align=left;verticalAlign=middle;whiteSpace=wrap;rounded=0;fontSize=6;fontStyle=1" parent="1" vertex="1">
          <mxGeometry x="1010" y="597.13" width="40" height="20" as="geometry" />
        </mxCell>
        <mxCell id="Gvlh0brdfd21mCTL1ysy-58" value="Write Data" style="text;html=1;strokeColor=none;fillColor=none;align=left;verticalAlign=middle;whiteSpace=wrap;rounded=0;fontSize=6;fontStyle=1" parent="1" vertex="1">
          <mxGeometry x="1010" y="613.88" width="40" height="20" as="geometry" />
        </mxCell>
        <mxCell id="Gvlh0brdfd21mCTL1ysy-60" value="" style="endArrow=none;html=1;rounded=0;" parent="1" edge="1">
          <mxGeometry width="50" height="50" relative="1" as="geometry">
            <mxPoint x="242.5" y="644" as="sourcePoint" />
            <mxPoint x="200" y="624" as="targetPoint" />
          </mxGeometry>
        </mxCell>
        <mxCell id="Gvlh0brdfd21mCTL1ysy-61" value="" style="endArrow=none;html=1;rounded=0;" parent="1" edge="1">
          <mxGeometry width="50" height="50" relative="1" as="geometry">
            <mxPoint x="242.5" y="664" as="sourcePoint" />
            <mxPoint x="200" y="684" as="targetPoint" />
          </mxGeometry>
        </mxCell>
        <mxCell id="Gvlh0brdfd21mCTL1ysy-62" value="" style="endArrow=none;html=1;rounded=0;" parent="1" edge="1">
          <mxGeometry width="50" height="50" relative="1" as="geometry">
            <mxPoint x="242.5" y="664" as="sourcePoint" />
            <mxPoint x="242.5" y="644" as="targetPoint" />
          </mxGeometry>
        </mxCell>
        <mxCell id="Gvlh0brdfd21mCTL1ysy-63" value="" style="endArrow=none;html=1;rounded=0;" parent="1" edge="1">
          <mxGeometry width="50" height="50" relative="1" as="geometry">
            <mxPoint x="200" y="644" as="sourcePoint" />
            <mxPoint x="200" y="624" as="targetPoint" />
            <Array as="points">
              <mxPoint x="200" y="634" />
            </Array>
          </mxGeometry>
        </mxCell>
        <mxCell id="Gvlh0brdfd21mCTL1ysy-64" value="" style="endArrow=none;html=1;rounded=0;" parent="1" edge="1">
          <mxGeometry width="50" height="50" relative="1" as="geometry">
            <mxPoint x="200" y="684" as="sourcePoint" />
            <mxPoint x="200" y="664" as="targetPoint" />
            <Array as="points">
              <mxPoint x="200" y="674" />
            </Array>
          </mxGeometry>
        </mxCell>
        <mxCell id="Gvlh0brdfd21mCTL1ysy-65" value="" style="endArrow=none;html=1;rounded=0;" parent="1" edge="1">
          <mxGeometry width="50" height="50" relative="1" as="geometry">
            <mxPoint x="200" y="664" as="sourcePoint" />
            <mxPoint x="210" y="654" as="targetPoint" />
          </mxGeometry>
        </mxCell>
        <mxCell id="Gvlh0brdfd21mCTL1ysy-66" value="" style="endArrow=none;html=1;rounded=0;" parent="1" edge="1">
          <mxGeometry width="50" height="50" relative="1" as="geometry">
            <mxPoint x="200" y="644" as="sourcePoint" />
            <mxPoint x="210" y="654" as="targetPoint" />
          </mxGeometry>
        </mxCell>
        <mxCell id="xivKOrNHY8w8_7kdoRQL-38" style="edgeStyle=orthogonalEdgeStyle;shape=connector;rounded=0;orthogonalLoop=1;jettySize=auto;html=1;entryX=0.646;entryY=1.056;entryDx=0;entryDy=0;entryPerimeter=0;labelBackgroundColor=default;strokeColor=default;fontFamily=Helvetica;fontSize=11;fontColor=default;endArrow=none;endFill=0;" edge="1" parent="1" source="Gvlh0brdfd21mCTL1ysy-67" target="2e7VlRh2Dpikmwv9G9NX-2">
          <mxGeometry relative="1" as="geometry" />
        </mxCell>
        <mxCell id="Gvlh0brdfd21mCTL1ysy-67" value="ADD" style="text;html=1;strokeColor=none;fillColor=none;align=center;verticalAlign=middle;whiteSpace=wrap;rounded=0;fontSize=6;fontStyle=1" parent="1" vertex="1">
          <mxGeometry x="210" y="644" width="33" height="20" as="geometry" />
        </mxCell>
        <mxCell id="Gvlh0brdfd21mCTL1ysy-70" value="1 natural" style="text;html=1;strokeColor=none;fillColor=none;align=center;verticalAlign=middle;whiteSpace=wrap;rounded=0;fontSize=6;fontStyle=1" parent="1" vertex="1">
          <mxGeometry x="172" y="663" width="30" height="18" as="geometry" />
        </mxCell>
        <mxCell id="xivKOrNHY8w8_7kdoRQL-42" style="edgeStyle=orthogonalEdgeStyle;shape=connector;rounded=0;orthogonalLoop=1;jettySize=auto;html=1;labelBackgroundColor=default;strokeColor=default;fontFamily=Helvetica;fontSize=11;fontColor=default;endArrow=none;endFill=0;entryX=0;entryY=0.5;entryDx=0;entryDy=0;" edge="1" parent="1" source="Gvlh0brdfd21mCTL1ysy-116" target="Gvlh0brdfd21mCTL1ysy-147">
          <mxGeometry relative="1" as="geometry">
            <mxPoint x="508.0000000000002" y="419.9999999999999" as="targetPoint" />
            <Array as="points">
              <mxPoint x="1038" y="525" />
              <mxPoint x="1038" y="380" />
              <mxPoint x="24" y="380" />
              <mxPoint x="24" y="481" />
            </Array>
          </mxGeometry>
        </mxCell>
        <mxCell id="Gvlh0brdfd21mCTL1ysy-116" value="" style="shape=or;whiteSpace=wrap;html=1;" parent="1" vertex="1">
          <mxGeometry x="985" y="511.13" width="30" height="28.5" as="geometry" />
        </mxCell>
        <mxCell id="Gvlh0brdfd21mCTL1ysy-117" value="MemR/W" style="text;html=1;strokeColor=none;fillColor=none;align=center;verticalAlign=middle;whiteSpace=wrap;rounded=0;fontSize=6;fontStyle=1" parent="1" vertex="1">
          <mxGeometry x="1040" y="587.63" width="40" height="9.5" as="geometry" />
        </mxCell>
        <mxCell id="Gvlh0brdfd21mCTL1ysy-141" style="edgeStyle=orthogonalEdgeStyle;shape=connector;rounded=0;orthogonalLoop=1;jettySize=auto;html=1;labelBackgroundColor=default;strokeColor=default;fontFamily=Helvetica;fontSize=11;fontColor=default;endArrow=none;endFill=0;" parent="1" edge="1">
          <mxGeometry relative="1" as="geometry">
            <mxPoint x="173" y="675" as="sourcePoint" />
            <mxPoint x="200" y="674.86" as="targetPoint" />
          </mxGeometry>
        </mxCell>
        <mxCell id="Gvlh0brdfd21mCTL1ysy-149" style="edgeStyle=orthogonalEdgeStyle;shape=connector;rounded=0;orthogonalLoop=1;jettySize=auto;html=1;entryX=0;entryY=0.5;entryDx=0;entryDy=0;labelBackgroundColor=default;strokeColor=default;fontFamily=Helvetica;fontSize=11;fontColor=default;endArrow=none;endFill=0;exitX=1.009;exitY=0.339;exitDx=0;exitDy=0;exitPerimeter=0;" parent="1" edge="1">
          <mxGeometry relative="1" as="geometry">
            <Array as="points">
              <mxPoint x="64" y="492" />
            </Array>
            <mxPoint x="63.88499999999996" y="488.78000000000003" as="sourcePoint" />
            <mxPoint x="102" y="492" as="targetPoint" />
          </mxGeometry>
        </mxCell>
        <mxCell id="YMEBKkw99cfDEM1M3ef4-4" style="edgeStyle=orthogonalEdgeStyle;shape=connector;rounded=0;orthogonalLoop=1;jettySize=auto;html=1;exitX=0;exitY=0.5;exitDx=0;exitDy=0;labelBackgroundColor=default;strokeColor=default;fontFamily=Helvetica;fontSize=11;fontColor=default;endArrow=none;endFill=0;" parent="1" source="Gvlh0brdfd21mCTL1ysy-38" edge="1">
          <mxGeometry relative="1" as="geometry">
            <mxPoint x="200" y="629" as="targetPoint" />
            <Array as="points">
              <mxPoint x="182" y="506" />
              <mxPoint x="182" y="634" />
              <mxPoint x="200" y="634" />
            </Array>
            <mxPoint x="194" y="511" as="sourcePoint" />
          </mxGeometry>
        </mxCell>
        <mxCell id="Gvlh0brdfd21mCTL1ysy-50" value="" style="shape=trapezoid;perimeter=trapezoidPerimeter;whiteSpace=wrap;html=1;fixedSize=1;direction=south;" parent="1" vertex="1">
          <mxGeometry x="102" y="476" width="20" height="60" as="geometry" />
        </mxCell>
        <mxCell id="Gvlh0brdfd21mCTL1ysy-51" value="M&lt;br&gt;U&lt;br&gt;X" style="text;html=1;strokeColor=none;fillColor=none;align=center;verticalAlign=middle;whiteSpace=wrap;rounded=0;fontSize=6;fontStyle=1;rotation=0;" parent="1" vertex="1">
          <mxGeometry x="107" y="493" width="15" height="20" as="geometry" />
        </mxCell>
        <mxCell id="Gvlh0brdfd21mCTL1ysy-52" value="0" style="text;html=1;strokeColor=none;fillColor=none;align=center;verticalAlign=middle;whiteSpace=wrap;rounded=0;fontSize=6;fontStyle=1;rotation=0;" parent="1" vertex="1">
          <mxGeometry x="102" y="482" width="13" height="20" as="geometry" />
        </mxCell>
        <mxCell id="Gvlh0brdfd21mCTL1ysy-53" value="1" style="text;html=1;strokeColor=none;fillColor=none;align=center;verticalAlign=middle;whiteSpace=wrap;rounded=0;fontSize=6;fontStyle=1;rotation=0;" parent="1" vertex="1">
          <mxGeometry x="102" y="506.5" width="13" height="20" as="geometry" />
        </mxCell>
        <mxCell id="YMEBKkw99cfDEM1M3ef4-21" value="" style="group" parent="1" vertex="1" connectable="0">
          <mxGeometry x="43.75" y="462" width="20" height="60" as="geometry" />
        </mxCell>
        <mxCell id="Gvlh0brdfd21mCTL1ysy-145" value="" style="shape=trapezoid;perimeter=trapezoidPerimeter;whiteSpace=wrap;html=1;fixedSize=1;direction=south;" parent="YMEBKkw99cfDEM1M3ef4-21" vertex="1">
          <mxGeometry width="20" height="60" as="geometry" />
        </mxCell>
        <mxCell id="Gvlh0brdfd21mCTL1ysy-146" value="M&lt;br&gt;U&lt;br&gt;X" style="text;html=1;strokeColor=none;fillColor=none;align=center;verticalAlign=middle;whiteSpace=wrap;rounded=0;fontSize=6;fontStyle=1;rotation=0;" parent="YMEBKkw99cfDEM1M3ef4-21" vertex="1">
          <mxGeometry x="5" y="23" width="15" height="20" as="geometry" />
        </mxCell>
        <mxCell id="Gvlh0brdfd21mCTL1ysy-147" value="0" style="text;html=1;strokeColor=none;fillColor=none;align=left;verticalAlign=middle;whiteSpace=wrap;rounded=0;fontSize=6;fontStyle=1;rotation=0;" parent="YMEBKkw99cfDEM1M3ef4-21" vertex="1">
          <mxGeometry x="0.25" y="11.5" width="14.75" height="15.5" as="geometry" />
        </mxCell>
        <mxCell id="Gvlh0brdfd21mCTL1ysy-148" value="1" style="text;html=1;strokeColor=none;fillColor=none;align=left;verticalAlign=middle;whiteSpace=wrap;rounded=0;fontSize=6;fontStyle=1;rotation=0;" parent="YMEBKkw99cfDEM1M3ef4-21" vertex="1">
          <mxGeometry y="31.5" width="15" height="20" as="geometry" />
        </mxCell>
        <mxCell id="YMEBKkw99cfDEM1M3ef4-28" value="CLK" style="text;html=1;strokeColor=none;fillColor=none;align=center;verticalAlign=middle;whiteSpace=wrap;rounded=0;fontSize=6;fontStyle=1" parent="1" vertex="1">
          <mxGeometry x="406" y="499" width="46" height="10" as="geometry" />
        </mxCell>
        <mxCell id="YMEBKkw99cfDEM1M3ef4-29" value="CLK" style="text;html=1;strokeColor=none;fillColor=none;align=center;verticalAlign=middle;whiteSpace=wrap;rounded=0;fontSize=6;fontStyle=1" parent="1" vertex="1">
          <mxGeometry x="1010" y="587.63" width="40" height="9.5" as="geometry" />
        </mxCell>
        <mxCell id="YMEBKkw99cfDEM1M3ef4-31" value="" style="group" parent="1" vertex="1" connectable="0">
          <mxGeometry x="722" y="526.38" width="55.75" height="60" as="geometry" />
        </mxCell>
        <mxCell id="Gvlh0brdfd21mCTL1ysy-24" value="" style="endArrow=none;html=1;rounded=0;" parent="YMEBKkw99cfDEM1M3ef4-31" edge="1">
          <mxGeometry width="50" height="50" relative="1" as="geometry">
            <mxPoint x="40" y="20" as="sourcePoint" />
            <mxPoint as="targetPoint" />
          </mxGeometry>
        </mxCell>
        <mxCell id="Gvlh0brdfd21mCTL1ysy-25" value="" style="endArrow=none;html=1;rounded=0;" parent="YMEBKkw99cfDEM1M3ef4-31" edge="1">
          <mxGeometry width="50" height="50" relative="1" as="geometry">
            <mxPoint x="40" y="40" as="sourcePoint" />
            <mxPoint y="60" as="targetPoint" />
          </mxGeometry>
        </mxCell>
        <mxCell id="Gvlh0brdfd21mCTL1ysy-26" value="" style="endArrow=none;html=1;rounded=0;" parent="YMEBKkw99cfDEM1M3ef4-31" edge="1">
          <mxGeometry width="50" height="50" relative="1" as="geometry">
            <mxPoint x="40" y="40" as="sourcePoint" />
            <mxPoint x="40" y="20" as="targetPoint" />
          </mxGeometry>
        </mxCell>
        <mxCell id="Gvlh0brdfd21mCTL1ysy-28" value="" style="endArrow=none;html=1;rounded=0;" parent="YMEBKkw99cfDEM1M3ef4-31" edge="1">
          <mxGeometry width="50" height="50" relative="1" as="geometry">
            <mxPoint y="20" as="sourcePoint" />
            <mxPoint as="targetPoint" />
            <Array as="points">
              <mxPoint y="10" />
            </Array>
          </mxGeometry>
        </mxCell>
        <mxCell id="Gvlh0brdfd21mCTL1ysy-29" value="" style="endArrow=none;html=1;rounded=0;" parent="YMEBKkw99cfDEM1M3ef4-31" edge="1">
          <mxGeometry width="50" height="50" relative="1" as="geometry">
            <mxPoint y="60" as="sourcePoint" />
            <mxPoint y="40" as="targetPoint" />
            <Array as="points">
              <mxPoint y="50" />
            </Array>
          </mxGeometry>
        </mxCell>
        <mxCell id="Gvlh0brdfd21mCTL1ysy-30" value="" style="endArrow=none;html=1;rounded=0;" parent="YMEBKkw99cfDEM1M3ef4-31" edge="1">
          <mxGeometry width="50" height="50" relative="1" as="geometry">
            <mxPoint y="40" as="sourcePoint" />
            <mxPoint x="10" y="30" as="targetPoint" />
          </mxGeometry>
        </mxCell>
        <mxCell id="Gvlh0brdfd21mCTL1ysy-31" value="" style="endArrow=none;html=1;rounded=0;" parent="YMEBKkw99cfDEM1M3ef4-31" edge="1">
          <mxGeometry width="50" height="50" relative="1" as="geometry">
            <mxPoint y="20" as="sourcePoint" />
            <mxPoint x="10" y="30" as="targetPoint" />
          </mxGeometry>
        </mxCell>
        <mxCell id="YAo5oDD9OdVNBZsx1TzP-29" style="edgeStyle=orthogonalEdgeStyle;shape=connector;rounded=0;orthogonalLoop=1;jettySize=auto;html=1;exitX=1;exitY=0.5;exitDx=0;exitDy=0;labelBackgroundColor=default;strokeColor=default;fontFamily=Helvetica;fontSize=11;fontColor=default;endArrow=none;endFill=0;" parent="YMEBKkw99cfDEM1M3ef4-31" source="Gvlh0brdfd21mCTL1ysy-32" edge="1">
          <mxGeometry relative="1" as="geometry">
            <mxPoint x="63" y="29.951612903225794" as="targetPoint" />
          </mxGeometry>
        </mxCell>
        <mxCell id="Gvlh0brdfd21mCTL1ysy-32" value="ALU" style="text;html=1;strokeColor=none;fillColor=none;align=center;verticalAlign=middle;whiteSpace=wrap;rounded=0;fontSize=6;fontStyle=1" parent="YMEBKkw99cfDEM1M3ef4-31" vertex="1">
          <mxGeometry x="1" y="20" width="40" height="20" as="geometry" />
        </mxCell>
        <mxCell id="lDqUrehN1HOp68E280Si-3" value="pc in" style="text;html=1;strokeColor=none;fillColor=none;align=left;verticalAlign=middle;whiteSpace=wrap;rounded=0;fontSize=6;" parent="1" vertex="1">
          <mxGeometry x="122" y="495.5" width="35" height="9.5" as="geometry" />
        </mxCell>
        <mxCell id="lDqUrehN1HOp68E280Si-4" value="pc aux" style="text;html=1;strokeColor=none;fillColor=none;align=right;verticalAlign=middle;whiteSpace=wrap;rounded=0;fontSize=6;" parent="1" vertex="1">
          <mxGeometry x="63.75" y="482" width="35" height="9.5" as="geometry" />
        </mxCell>
        <mxCell id="lDqUrehN1HOp68E280Si-5" value="pc_beq_address" style="text;html=1;strokeColor=none;fillColor=none;align=left;verticalAlign=middle;whiteSpace=wrap;rounded=0;fontSize=6;rotation=-90;" parent="1" vertex="1">
          <mxGeometry x="-10" y="449" width="53.75" height="13" as="geometry" />
        </mxCell>
        <mxCell id="lDqUrehN1HOp68E280Si-8" value="pc out" style="text;html=1;strokeColor=none;fillColor=none;align=left;verticalAlign=middle;whiteSpace=wrap;rounded=0;fontSize=6;rotation=0;" parent="1" vertex="1">
          <mxGeometry x="163.75" y="491.5" width="25" height="16.5" as="geometry" />
        </mxCell>
        <mxCell id="lDqUrehN1HOp68E280Si-11" value="intruction" style="text;html=1;strokeColor=none;fillColor=none;align=left;verticalAlign=middle;whiteSpace=wrap;rounded=0;fontSize=6;" parent="1" vertex="1">
          <mxGeometry x="274" y="509.5" width="35" height="9.5" as="geometry" />
        </mxCell>
        <mxCell id="lDqUrehN1HOp68E280Si-17" value="9:5" style="text;html=1;strokeColor=none;fillColor=none;align=right;verticalAlign=middle;whiteSpace=wrap;rounded=0;fontSize=6;" parent="1" vertex="1">
          <mxGeometry x="365" y="510.5" width="35" height="9.5" as="geometry" />
        </mxCell>
        <mxCell id="lDqUrehN1HOp68E280Si-18" value="14:10" style="text;html=1;strokeColor=none;fillColor=none;align=right;verticalAlign=middle;whiteSpace=wrap;rounded=0;fontSize=6;" parent="1" vertex="1">
          <mxGeometry x="365" y="522" width="35" height="9.5" as="geometry" />
        </mxCell>
        <mxCell id="lDqUrehN1HOp68E280Si-22" value="read data 1" style="text;html=1;strokeColor=none;fillColor=none;align=left;verticalAlign=middle;whiteSpace=wrap;rounded=0;fontSize=6;" parent="1" vertex="1">
          <mxGeometry x="520" y="519.5" width="35" height="9.5" as="geometry" />
        </mxCell>
        <mxCell id="lDqUrehN1HOp68E280Si-23" value="read data 2" style="text;html=1;strokeColor=none;fillColor=none;align=left;verticalAlign=middle;whiteSpace=wrap;rounded=0;fontSize=6;" parent="1" vertex="1">
          <mxGeometry x="520" y="550.25" width="35" height="9.5" as="geometry" />
        </mxCell>
        <mxCell id="lDqUrehN1HOp68E280Si-26" value="31:15" style="text;html=1;strokeColor=none;fillColor=none;align=right;verticalAlign=middle;whiteSpace=wrap;rounded=0;fontSize=6;" parent="1" vertex="1">
          <mxGeometry x="390" y="700.75" width="35" height="9.5" as="geometry" />
        </mxCell>
        <mxCell id="lDqUrehN1HOp68E280Si-28" value="&lt;div style=&quot;&quot;&gt;write rd&lt;/div&gt;" style="text;html=1;strokeColor=none;fillColor=none;align=right;verticalAlign=middle;whiteSpace=wrap;rounded=0;fontSize=6;rotation=1;direction=east;" parent="1" vertex="1">
          <mxGeometry x="365" y="535.5" width="35" height="9.5" as="geometry" />
        </mxCell>
        <mxCell id="lDqUrehN1HOp68E280Si-29" value="alu result" style="text;html=1;strokeColor=none;fillColor=none;align=left;verticalAlign=middle;whiteSpace=wrap;rounded=0;fontSize=6;" parent="1" vertex="1">
          <mxGeometry x="785" y="563.88" width="35" height="9.5" as="geometry" />
        </mxCell>
        <mxCell id="lDqUrehN1HOp68E280Si-35" value="read data" style="text;html=1;strokeColor=none;fillColor=none;align=left;verticalAlign=middle;whiteSpace=wrap;rounded=0;fontSize=6;" parent="1" vertex="1">
          <mxGeometry x="1080" y="610.13" width="35" height="9.5" as="geometry" />
        </mxCell>
        <mxCell id="lDqUrehN1HOp68E280Si-42" value="4:0" style="text;html=1;strokeColor=none;fillColor=none;align=right;verticalAlign=middle;whiteSpace=wrap;rounded=0;fontSize=6;" parent="1" vertex="1">
          <mxGeometry x="436.85" y="330.37" width="35" height="9.5" as="geometry" />
        </mxCell>
        <mxCell id="lDqUrehN1HOp68E280Si-43" value="branch result" style="text;html=1;strokeColor=none;fillColor=none;align=right;verticalAlign=middle;whiteSpace=wrap;rounded=0;fontSize=6;direction=west;rotation=-90;" parent="1" vertex="1">
          <mxGeometry x="1010" y="477.5" width="42" height="9.5" as="geometry" />
        </mxCell>
        <mxCell id="lDqUrehN1HOp68E280Si-44" value="pc next address" style="text;html=1;strokeColor=none;fillColor=none;align=left;verticalAlign=middle;whiteSpace=wrap;rounded=0;fontSize=6;rotation=0;" parent="1" vertex="1">
          <mxGeometry x="243.75" y="642.63" width="51.25" height="9.5" as="geometry" />
        </mxCell>
        <mxCell id="lDqUrehN1HOp68E280Si-45" value="jump jal&amp;nbsp;signal" style="text;html=1;strokeColor=none;fillColor=none;align=left;verticalAlign=middle;whiteSpace=wrap;rounded=0;fontSize=6;rotation=-90;" parent="1" vertex="1">
          <mxGeometry x="52.5" y="533.5" width="44" height="9.5" as="geometry" />
        </mxCell>
        <mxCell id="lDqUrehN1HOp68E280Si-46" value="RegDest" style="text;html=1;strokeColor=none;fillColor=none;align=left;verticalAlign=middle;whiteSpace=wrap;rounded=0;fontSize=6;fontStyle=1" parent="1" vertex="1">
          <mxGeometry x="471.9899999999999" y="270.37" width="30" height="20" as="geometry" />
        </mxCell>
        <mxCell id="vyrQ6diZX3epNwXhy5wu-1" value="Resp" style="text;html=1;strokeColor=none;fillColor=none;align=right;verticalAlign=middle;whiteSpace=wrap;rounded=0;fontSize=6;fontStyle=1" parent="1" vertex="1">
          <mxGeometry x="521.9899999999999" y="290.37" width="60" height="20" as="geometry" />
        </mxCell>
        <mxCell id="vyrQ6diZX3epNwXhy5wu-4" value="SrlCnt" style="text;html=1;strokeColor=none;fillColor=none;align=right;verticalAlign=middle;whiteSpace=wrap;rounded=0;fontSize=6;fontStyle=1" parent="1" vertex="1">
          <mxGeometry x="551.9999999999999" y="310.37" width="30" height="20" as="geometry" />
        </mxCell>
        <mxCell id="4w0Ha68qAj18L9jSZj2k-5" value="" style="rounded=0;whiteSpace=wrap;html=1;" parent="1" vertex="1">
          <mxGeometry x="704" y="627.13" width="70" height="67.5" as="geometry" />
        </mxCell>
        <mxCell id="4w0Ha68qAj18L9jSZj2k-6" value="BARREL SHIFTER&amp;nbsp;" style="text;html=1;strokeColor=none;fillColor=none;align=center;verticalAlign=middle;whiteSpace=wrap;rounded=0;fontSize=6;fontStyle=1" parent="1" vertex="1">
          <mxGeometry x="709" y="674.63" width="60" height="17.5" as="geometry" />
        </mxCell>
        <mxCell id="xivKOrNHY8w8_7kdoRQL-25" style="edgeStyle=orthogonalEdgeStyle;shape=connector;rounded=0;orthogonalLoop=1;jettySize=auto;html=1;entryX=0.668;entryY=1.1;entryDx=0;entryDy=0;entryPerimeter=0;labelBackgroundColor=default;strokeColor=default;fontFamily=Helvetica;fontSize=11;fontColor=default;endArrow=none;endFill=0;" edge="1" parent="1" source="4w0Ha68qAj18L9jSZj2k-7" target="2e7VlRh2Dpikmwv9G9NX-20">
          <mxGeometry relative="1" as="geometry" />
        </mxCell>
        <mxCell id="4w0Ha68qAj18L9jSZj2k-7" value="Data Out" style="text;html=1;strokeColor=none;fillColor=none;align=center;verticalAlign=middle;whiteSpace=wrap;rounded=0;fontSize=6;fontStyle=1" parent="1" vertex="1">
          <mxGeometry x="754" y="653.38" width="20" height="20" as="geometry" />
        </mxCell>
        <mxCell id="4w0Ha68qAj18L9jSZj2k-8" value="In 01" style="text;html=1;strokeColor=none;fillColor=none;align=left;verticalAlign=middle;whiteSpace=wrap;rounded=0;fontSize=6;fontStyle=1" parent="1" vertex="1">
          <mxGeometry x="704" y="638.63" width="40" height="20" as="geometry" />
        </mxCell>
        <mxCell id="4w0Ha68qAj18L9jSZj2k-9" value="In 02" style="text;html=1;strokeColor=none;fillColor=none;align=left;verticalAlign=middle;whiteSpace=wrap;rounded=0;fontSize=6;fontStyle=1" parent="1" vertex="1">
          <mxGeometry x="704" y="654.63" width="40" height="20" as="geometry" />
        </mxCell>
        <mxCell id="4w0Ha68qAj18L9jSZj2k-10" value="SRL Cnt" style="text;html=1;strokeColor=none;fillColor=none;align=center;verticalAlign=middle;whiteSpace=wrap;rounded=0;fontSize=6;fontStyle=1" parent="1" vertex="1">
          <mxGeometry x="734" y="627.63" width="40" height="9.5" as="geometry" />
        </mxCell>
        <mxCell id="xivKOrNHY8w8_7kdoRQL-36" style="edgeStyle=orthogonalEdgeStyle;shape=connector;rounded=0;orthogonalLoop=1;jettySize=auto;html=1;labelBackgroundColor=default;strokeColor=default;fontFamily=Helvetica;fontSize=11;fontColor=default;endArrow=none;endFill=0;dashed=1;" edge="1" parent="1" source="4w0Ha68qAj18L9jSZj2k-16" target="Gvlh0brdfd21mCTL1ysy-5">
          <mxGeometry relative="1" as="geometry">
            <mxPoint x="828" y="690" as="targetPoint" />
            <Array as="points">
              <mxPoint x="1278" y="613" />
              <mxPoint x="1278" y="810" />
              <mxPoint x="388" y="810" />
              <mxPoint x="388" y="579" />
            </Array>
          </mxGeometry>
        </mxCell>
        <mxCell id="4w0Ha68qAj18L9jSZj2k-16" value="" style="shape=trapezoid;perimeter=trapezoidPerimeter;whiteSpace=wrap;html=1;fixedSize=1;direction=south;" parent="1" vertex="1">
          <mxGeometry x="1238.5" y="578.38" width="20" height="70" as="geometry" />
        </mxCell>
        <mxCell id="4w0Ha68qAj18L9jSZj2k-17" value="00" style="text;html=1;strokeColor=none;fillColor=none;align=left;verticalAlign=middle;whiteSpace=wrap;rounded=0;fontSize=6;fontStyle=1;rotation=0;" parent="1" vertex="1">
          <mxGeometry x="1238.5" y="586.38" width="13" height="20" as="geometry" />
        </mxCell>
        <mxCell id="4w0Ha68qAj18L9jSZj2k-18" value="01" style="text;html=1;strokeColor=none;fillColor=none;align=left;verticalAlign=middle;whiteSpace=wrap;rounded=0;fontSize=6;fontStyle=1;rotation=0;" parent="1" vertex="1">
          <mxGeometry x="1238.5" y="598.38" width="13" height="20" as="geometry" />
        </mxCell>
        <mxCell id="4w0Ha68qAj18L9jSZj2k-19" value="10" style="text;html=1;strokeColor=none;fillColor=none;align=left;verticalAlign=middle;whiteSpace=wrap;rounded=0;fontSize=6;fontStyle=1;rotation=0;" parent="1" vertex="1">
          <mxGeometry x="1238.5" y="608.38" width="13" height="20" as="geometry" />
        </mxCell>
        <mxCell id="4w0Ha68qAj18L9jSZj2k-20" value="11" style="text;html=1;strokeColor=none;fillColor=none;align=left;verticalAlign=middle;whiteSpace=wrap;rounded=0;fontSize=6;fontStyle=1;rotation=0;" parent="1" vertex="1">
          <mxGeometry x="1238.5" y="618.38" width="13" height="20" as="geometry" />
        </mxCell>
        <mxCell id="4w0Ha68qAj18L9jSZj2k-21" value="RES" style="text;html=1;strokeColor=none;fillColor=none;align=center;verticalAlign=middle;whiteSpace=wrap;rounded=0;fontSize=6;fontStyle=1;rotation=90;" parent="1" vertex="1">
          <mxGeometry x="1238.5" y="598.38" width="30" height="20" as="geometry" />
        </mxCell>
        <mxCell id="4w0Ha68qAj18L9jSZj2k-23" value="shifter result" style="text;html=1;strokeColor=none;fillColor=none;align=left;verticalAlign=middle;whiteSpace=wrap;rounded=0;fontSize=6;" parent="1" vertex="1">
          <mxGeometry x="774" y="653.38" width="41" height="9.5" as="geometry" />
        </mxCell>
        <mxCell id="4w0Ha68qAj18L9jSZj2k-40" value="" style="group" parent="1" vertex="1" connectable="0">
          <mxGeometry x="424.99" y="699" width="44" height="15.75" as="geometry" />
        </mxCell>
        <mxCell id="4w0Ha68qAj18L9jSZj2k-41" value="" style="endArrow=none;html=1;rounded=0;" parent="4w0Ha68qAj18L9jSZj2k-40" edge="1">
          <mxGeometry width="50" height="50" relative="1" as="geometry">
            <mxPoint x="43.41039999999994" y="12.6" as="sourcePoint" />
            <mxPoint x="43.12" as="targetPoint" />
          </mxGeometry>
        </mxCell>
        <mxCell id="4w0Ha68qAj18L9jSZj2k-42" value="" style="endArrow=none;html=1;rounded=0;" parent="4w0Ha68qAj18L9jSZj2k-40" edge="1">
          <mxGeometry width="50" height="50" relative="1" as="geometry">
            <mxPoint y="12.177900000000026" as="sourcePoint" />
            <mxPoint x="44" y="12.177900000000026" as="targetPoint" />
          </mxGeometry>
        </mxCell>
        <mxCell id="4w0Ha68qAj18L9jSZj2k-43" value="" style="endArrow=none;html=1;rounded=0;" parent="4w0Ha68qAj18L9jSZj2k-40" edge="1">
          <mxGeometry width="50" height="50" relative="1" as="geometry">
            <mxPoint x="0.290399999999936" y="12.6" as="sourcePoint" />
            <mxPoint y="6.3" as="targetPoint" />
          </mxGeometry>
        </mxCell>
        <mxCell id="4w0Ha68qAj18L9jSZj2k-44" value="" style="endArrow=none;html=1;rounded=0;" parent="4w0Ha68qAj18L9jSZj2k-40" edge="1">
          <mxGeometry width="50" height="50" relative="1" as="geometry">
            <mxPoint y="6.3" as="sourcePoint" />
            <mxPoint x="44" as="targetPoint" />
          </mxGeometry>
        </mxCell>
        <mxCell id="4w0Ha68qAj18L9jSZj2k-45" value="SIGN EXT" style="text;html=1;strokeColor=none;fillColor=none;align=center;verticalAlign=middle;whiteSpace=wrap;rounded=0;fontSize=6;fontStyle=1" parent="4w0Ha68qAj18L9jSZj2k-40" vertex="1">
          <mxGeometry x="10.12" y="3.15" width="29.88" height="12.6" as="geometry" />
        </mxCell>
        <mxCell id="xivKOrNHY8w8_7kdoRQL-12" style="edgeStyle=orthogonalEdgeStyle;shape=connector;rounded=0;orthogonalLoop=1;jettySize=auto;html=1;exitX=0;exitY=0.75;exitDx=0;exitDy=0;labelBackgroundColor=default;strokeColor=default;fontFamily=Helvetica;fontSize=11;fontColor=default;endArrow=none;endFill=0;" edge="1" parent="1" source="4w0Ha68qAj18L9jSZj2k-77">
          <mxGeometry relative="1" as="geometry">
            <mxPoint x="598" y="706.1610738255033" as="targetPoint" />
            <Array as="points">
              <mxPoint x="528" y="706" />
              <mxPoint x="554" y="707" />
            </Array>
          </mxGeometry>
        </mxCell>
        <mxCell id="4w0Ha68qAj18L9jSZj2k-77" value="imm32" style="text;html=1;strokeColor=none;fillColor=none;align=left;verticalAlign=middle;whiteSpace=wrap;rounded=0;fontSize=6;" parent="1" vertex="1">
          <mxGeometry x="469.5" y="699" width="41" height="9.5" as="geometry" />
        </mxCell>
        <mxCell id="Nmrm6_6fbguC6e-CNsKx-23" value="result" style="text;html=1;strokeColor=none;fillColor=none;align=left;verticalAlign=middle;whiteSpace=wrap;rounded=0;fontSize=6;direction=west;rotation=0;" parent="1" vertex="1">
          <mxGeometry x="1258.5" y="603.63" width="35" height="9.5" as="geometry" />
        </mxCell>
        <mxCell id="Nmrm6_6fbguC6e-CNsKx-27" style="edgeStyle=orthogonalEdgeStyle;shape=connector;rounded=0;orthogonalLoop=1;jettySize=auto;html=1;exitX=1;exitY=0;exitDx=0;exitDy=0;labelBackgroundColor=default;strokeColor=default;fontFamily=Helvetica;fontSize=11;fontColor=default;endArrow=none;endFill=0;" parent="1" edge="1">
          <mxGeometry relative="1" as="geometry">
            <mxPoint x="1110" y="579.13" as="targetPoint" />
            <mxPoint x="1062" y="586.76" as="sourcePoint" />
            <Array as="points">
              <mxPoint x="1062" y="580.13" />
              <mxPoint x="1110" y="580.13" />
            </Array>
          </mxGeometry>
        </mxCell>
        <mxCell id="Nmrm6_6fbguC6e-CNsKx-28" value="MemW or MemR" style="text;html=1;strokeColor=none;fillColor=none;align=left;verticalAlign=middle;whiteSpace=wrap;rounded=0;fontSize=6;direction=west;rotation=0;" parent="1" vertex="1">
          <mxGeometry x="1061" y="571.38" width="51" height="9.5" as="geometry" />
        </mxCell>
        <mxCell id="Nmrm6_6fbguC6e-CNsKx-29" style="edgeStyle=orthogonalEdgeStyle;shape=connector;rounded=0;orthogonalLoop=1;jettySize=auto;html=1;exitX=1;exitY=0;exitDx=0;exitDy=0;labelBackgroundColor=default;strokeColor=default;fontFamily=Helvetica;fontSize=11;fontColor=default;endArrow=none;endFill=0;" parent="1" edge="1">
          <mxGeometry relative="1" as="geometry">
            <mxPoint x="1250" y="558.38" as="targetPoint" />
            <mxPoint x="1250" y="590.38" as="sourcePoint" />
          </mxGeometry>
        </mxCell>
        <mxCell id="Nmrm6_6fbguC6e-CNsKx-30" value="Resp" style="text;html=1;strokeColor=none;fillColor=none;align=left;verticalAlign=middle;whiteSpace=wrap;rounded=0;fontSize=6;direction=west;rotation=90;" parent="1" vertex="1">
          <mxGeometry x="1238" y="568.88" width="31" height="9.5" as="geometry" />
        </mxCell>
        <mxCell id="Nmrm6_6fbguC6e-CNsKx-31" style="edgeStyle=orthogonalEdgeStyle;shape=connector;rounded=0;orthogonalLoop=1;jettySize=auto;html=1;exitX=1;exitY=0;exitDx=0;exitDy=0;labelBackgroundColor=default;strokeColor=default;fontFamily=Helvetica;fontSize=11;fontColor=default;endArrow=none;endFill=0;entryX=0.893;entryY=0.078;entryDx=0;entryDy=0;entryPerimeter=0;" parent="1" target="Nmrm6_6fbguC6e-CNsKx-32" edge="1">
          <mxGeometry relative="1" as="geometry">
            <mxPoint x="953" y="519.13" as="targetPoint" />
            <mxPoint x="985" y="519.13" as="sourcePoint" />
          </mxGeometry>
        </mxCell>
        <mxCell id="Nmrm6_6fbguC6e-CNsKx-32" value="Branch" style="text;html=1;strokeColor=none;fillColor=none;align=right;verticalAlign=middle;whiteSpace=wrap;rounded=0;fontSize=6;direction=west;rotation=0;" parent="1" vertex="1">
          <mxGeometry x="958" y="510.13" width="27" height="9.5" as="geometry" />
        </mxCell>
        <mxCell id="Nmrm6_6fbguC6e-CNsKx-34" style="edgeStyle=orthogonalEdgeStyle;shape=connector;rounded=0;orthogonalLoop=1;jettySize=auto;html=1;labelBackgroundColor=default;strokeColor=default;fontFamily=Helvetica;fontSize=11;fontColor=default;endArrow=none;endFill=0;exitX=0.918;exitY=0.008;exitDx=0;exitDy=0;exitPerimeter=0;" parent="1" source="Nmrm6_6fbguC6e-CNsKx-35" edge="1">
          <mxGeometry relative="1" as="geometry">
            <mxPoint x="743" y="536.88" as="targetPoint" />
            <mxPoint x="743" y="518.88" as="sourcePoint" />
          </mxGeometry>
        </mxCell>
        <mxCell id="Nmrm6_6fbguC6e-CNsKx-39" style="edgeStyle=orthogonalEdgeStyle;shape=connector;rounded=0;orthogonalLoop=1;jettySize=auto;html=1;exitX=1;exitY=0;exitDx=0;exitDy=0;labelBackgroundColor=default;strokeColor=default;fontFamily=Helvetica;fontSize=11;fontColor=default;endArrow=none;endFill=0;" parent="1" edge="1">
          <mxGeometry relative="1" as="geometry">
            <mxPoint x="755" y="595.63" as="targetPoint" />
            <mxPoint x="755" y="627.63" as="sourcePoint" />
          </mxGeometry>
        </mxCell>
        <mxCell id="Nmrm6_6fbguC6e-CNsKx-40" value="SrlCnt" style="text;html=1;strokeColor=none;fillColor=none;align=left;verticalAlign=middle;whiteSpace=wrap;rounded=0;fontSize=6;direction=west;rotation=90;" parent="1" vertex="1">
          <mxGeometry x="743" y="606.13" width="31" height="9.5" as="geometry" />
        </mxCell>
        <mxCell id="Nmrm6_6fbguC6e-CNsKx-49" value="&lt;br&gt;" style="edgeStyle=orthogonalEdgeStyle;shape=connector;rounded=0;orthogonalLoop=1;jettySize=auto;html=1;exitX=1;exitY=0;exitDx=0;exitDy=0;labelBackgroundColor=default;strokeColor=default;fontFamily=Helvetica;fontSize=11;fontColor=default;endArrow=none;endFill=0;" parent="1" edge="1">
          <mxGeometry relative="1" as="geometry">
            <mxPoint x="493.5" y="467" as="targetPoint" />
            <mxPoint x="493.5" y="499" as="sourcePoint" />
          </mxGeometry>
        </mxCell>
        <mxCell id="Nmrm6_6fbguC6e-CNsKx-50" value="RegWrite" style="text;html=1;strokeColor=none;fillColor=none;align=left;verticalAlign=middle;whiteSpace=wrap;rounded=0;fontSize=6;direction=west;rotation=90;" parent="1" vertex="1">
          <mxGeometry x="481.5" y="477.5" width="31" height="9.5" as="geometry" />
        </mxCell>
        <mxCell id="Nmrm6_6fbguC6e-CNsKx-51" style="edgeStyle=orthogonalEdgeStyle;shape=connector;rounded=0;orthogonalLoop=1;jettySize=auto;html=1;labelBackgroundColor=default;strokeColor=default;fontFamily=Helvetica;fontSize=11;fontColor=default;endArrow=none;endFill=0;align=right;" parent="1" edge="1">
          <mxGeometry relative="1" as="geometry">
            <mxPoint x="581.8549999999999" y="283.735" as="targetPoint" />
            <mxPoint x="597.9799999999999" y="283.98" as="sourcePoint" />
          </mxGeometry>
        </mxCell>
        <mxCell id="Nmrm6_6fbguC6e-CNsKx-52" value="0:0" style="text;html=1;strokeColor=none;fillColor=none;align=right;verticalAlign=middle;whiteSpace=wrap;rounded=0;fontSize=6;direction=west;rotation=0;" parent="1" vertex="1">
          <mxGeometry x="581.9899999999999" y="276.74" width="16" height="7.25" as="geometry" />
        </mxCell>
        <mxCell id="Nmrm6_6fbguC6e-CNsKx-54" style="edgeStyle=orthogonalEdgeStyle;shape=connector;rounded=0;orthogonalLoop=1;jettySize=auto;html=1;labelBackgroundColor=default;strokeColor=default;fontFamily=Helvetica;fontSize=11;fontColor=default;endArrow=none;endFill=0;align=right;" parent="1" edge="1">
          <mxGeometry relative="1" as="geometry">
            <mxPoint x="581.8549999999999" y="302.365" as="targetPoint" />
            <mxPoint x="597.9799999999999" y="302.61" as="sourcePoint" />
          </mxGeometry>
        </mxCell>
        <mxCell id="Nmrm6_6fbguC6e-CNsKx-55" value="1:0" style="text;html=1;strokeColor=none;fillColor=none;align=right;verticalAlign=middle;whiteSpace=wrap;rounded=0;fontSize=6;direction=west;rotation=0;" parent="1" vertex="1">
          <mxGeometry x="581.9899999999999" y="295.37" width="16" height="7.25" as="geometry" />
        </mxCell>
        <mxCell id="Nmrm6_6fbguC6e-CNsKx-56" style="edgeStyle=orthogonalEdgeStyle;shape=connector;rounded=0;orthogonalLoop=1;jettySize=auto;html=1;labelBackgroundColor=default;strokeColor=default;fontFamily=Helvetica;fontSize=11;fontColor=default;endArrow=none;endFill=0;align=right;" parent="1" edge="1">
          <mxGeometry relative="1" as="geometry">
            <mxPoint x="581.8549999999999" y="321.365" as="targetPoint" />
            <mxPoint x="597.9799999999999" y="321.61" as="sourcePoint" />
          </mxGeometry>
        </mxCell>
        <mxCell id="Nmrm6_6fbguC6e-CNsKx-57" value="2:0" style="text;html=1;strokeColor=none;fillColor=none;align=right;verticalAlign=middle;whiteSpace=wrap;rounded=0;fontSize=6;direction=west;rotation=0;" parent="1" vertex="1">
          <mxGeometry x="581.9899999999999" y="314.37" width="16" height="7.25" as="geometry" />
        </mxCell>
        <mxCell id="Nmrm6_6fbguC6e-CNsKx-58" style="edgeStyle=orthogonalEdgeStyle;shape=connector;rounded=0;orthogonalLoop=1;jettySize=auto;html=1;labelBackgroundColor=default;strokeColor=default;fontFamily=Helvetica;fontSize=11;fontColor=default;endArrow=none;endFill=0;align=right;" parent="1" edge="1">
          <mxGeometry relative="1" as="geometry">
            <mxPoint x="581.8549999999999" y="341.365" as="targetPoint" />
            <mxPoint x="597.9799999999999" y="341.61" as="sourcePoint" />
          </mxGeometry>
        </mxCell>
        <mxCell id="Nmrm6_6fbguC6e-CNsKx-59" value="2:0" style="text;html=1;strokeColor=none;fillColor=none;align=right;verticalAlign=middle;whiteSpace=wrap;rounded=0;fontSize=6;direction=west;rotation=0;" parent="1" vertex="1">
          <mxGeometry x="581.9899999999999" y="334.37" width="16" height="7.25" as="geometry" />
        </mxCell>
        <mxCell id="Nmrm6_6fbguC6e-CNsKx-60" style="edgeStyle=orthogonalEdgeStyle;shape=connector;rounded=0;orthogonalLoop=1;jettySize=auto;html=1;labelBackgroundColor=default;strokeColor=default;fontFamily=Helvetica;fontSize=11;fontColor=default;endArrow=none;endFill=0;align=right;" parent="1" edge="1">
          <mxGeometry relative="1" as="geometry">
            <mxPoint x="581.8549999999999" y="261.365" as="targetPoint" />
            <mxPoint x="597.9799999999999" y="261.61" as="sourcePoint" />
          </mxGeometry>
        </mxCell>
        <mxCell id="Nmrm6_6fbguC6e-CNsKx-61" value="0:0" style="text;html=1;strokeColor=none;fillColor=none;align=right;verticalAlign=middle;whiteSpace=wrap;rounded=0;fontSize=6;direction=west;rotation=0;" parent="1" vertex="1">
          <mxGeometry x="581.9899999999999" y="254.37" width="16" height="7.25" as="geometry" />
        </mxCell>
        <mxCell id="Nmrm6_6fbguC6e-CNsKx-62" style="edgeStyle=orthogonalEdgeStyle;shape=connector;rounded=0;orthogonalLoop=1;jettySize=auto;html=1;labelBackgroundColor=default;strokeColor=default;fontFamily=Helvetica;fontSize=11;fontColor=default;endArrow=none;endFill=0;align=right;" parent="1" edge="1">
          <mxGeometry relative="1" as="geometry">
            <mxPoint x="581.8649999999999" y="242.365" as="targetPoint" />
            <mxPoint x="597.9899999999999" y="242.61" as="sourcePoint" />
          </mxGeometry>
        </mxCell>
        <mxCell id="Nmrm6_6fbguC6e-CNsKx-63" value="0:0" style="text;html=1;strokeColor=none;fillColor=none;align=right;verticalAlign=middle;whiteSpace=wrap;rounded=0;fontSize=6;direction=west;rotation=0;" parent="1" vertex="1">
          <mxGeometry x="581.9999999999999" y="235.37" width="16" height="7.25" as="geometry" />
        </mxCell>
        <mxCell id="Nmrm6_6fbguC6e-CNsKx-72" style="edgeStyle=orthogonalEdgeStyle;shape=connector;rounded=0;orthogonalLoop=1;jettySize=auto;html=1;labelBackgroundColor=default;strokeColor=default;fontFamily=Helvetica;fontSize=11;fontColor=default;endArrow=none;endFill=0;align=right;" parent="1" edge="1">
          <mxGeometry relative="1" as="geometry">
            <mxPoint x="455.8549999999999" y="262.365" as="targetPoint" />
            <mxPoint x="471.9799999999999" y="262.61" as="sourcePoint" />
          </mxGeometry>
        </mxCell>
        <mxCell id="Nmrm6_6fbguC6e-CNsKx-73" value="0:0" style="text;html=1;strokeColor=none;fillColor=none;align=right;verticalAlign=middle;whiteSpace=wrap;rounded=0;fontSize=6;direction=west;rotation=0;" parent="1" vertex="1">
          <mxGeometry x="455.9899999999999" y="255.37" width="16" height="7.25" as="geometry" />
        </mxCell>
        <mxCell id="Nmrm6_6fbguC6e-CNsKx-74" style="edgeStyle=orthogonalEdgeStyle;shape=connector;rounded=0;orthogonalLoop=1;jettySize=auto;html=1;labelBackgroundColor=default;strokeColor=default;fontFamily=Helvetica;fontSize=11;fontColor=default;endArrow=none;endFill=0;align=right;" parent="1" edge="1">
          <mxGeometry relative="1" as="geometry">
            <mxPoint x="455.8549999999999" y="283.365" as="targetPoint" />
            <mxPoint x="471.9799999999999" y="283.61" as="sourcePoint" />
          </mxGeometry>
        </mxCell>
        <mxCell id="Nmrm6_6fbguC6e-CNsKx-75" value="0:0" style="text;html=1;strokeColor=none;fillColor=none;align=right;verticalAlign=middle;whiteSpace=wrap;rounded=0;fontSize=6;direction=west;rotation=0;" parent="1" vertex="1">
          <mxGeometry x="455.9899999999999" y="276.37" width="16" height="7.25" as="geometry" />
        </mxCell>
        <mxCell id="Nmrm6_6fbguC6e-CNsKx-76" style="edgeStyle=orthogonalEdgeStyle;shape=connector;rounded=0;orthogonalLoop=1;jettySize=auto;html=1;labelBackgroundColor=default;strokeColor=default;fontFamily=Helvetica;fontSize=11;fontColor=default;endArrow=none;endFill=0;align=right;" parent="1" edge="1">
          <mxGeometry relative="1" as="geometry">
            <mxPoint x="455.8549999999999" y="303.365" as="targetPoint" />
            <mxPoint x="471.9799999999999" y="303.61" as="sourcePoint" />
          </mxGeometry>
        </mxCell>
        <mxCell id="Nmrm6_6fbguC6e-CNsKx-77" value="0:0" style="text;html=1;strokeColor=none;fillColor=none;align=right;verticalAlign=middle;whiteSpace=wrap;rounded=0;fontSize=6;direction=west;rotation=0;" parent="1" vertex="1">
          <mxGeometry x="455.9899999999999" y="296.37" width="16" height="7.25" as="geometry" />
        </mxCell>
        <mxCell id="Nmrm6_6fbguC6e-CNsKx-78" style="edgeStyle=orthogonalEdgeStyle;shape=connector;rounded=0;orthogonalLoop=1;jettySize=auto;html=1;labelBackgroundColor=default;strokeColor=default;fontFamily=Helvetica;fontSize=11;fontColor=default;endArrow=none;endFill=0;align=right;" parent="1" edge="1">
          <mxGeometry relative="1" as="geometry">
            <mxPoint x="455.70500000000004" y="323.735" as="targetPoint" />
            <mxPoint x="471.83000000000004" y="323.98" as="sourcePoint" />
          </mxGeometry>
        </mxCell>
        <mxCell id="Nmrm6_6fbguC6e-CNsKx-79" value="0:0" style="text;html=1;strokeColor=none;fillColor=none;align=right;verticalAlign=middle;whiteSpace=wrap;rounded=0;fontSize=6;direction=west;rotation=0;" parent="1" vertex="1">
          <mxGeometry x="455.84000000000003" y="316.74" width="16" height="7.25" as="geometry" />
        </mxCell>
        <mxCell id="Nmrm6_6fbguC6e-CNsKx-112" value="31:20" style="text;html=1;strokeColor=none;fillColor=none;align=right;verticalAlign=middle;whiteSpace=wrap;rounded=0;fontSize=6;" parent="1" vertex="1">
          <mxGeometry x="72" y="508" width="30" height="9.5" as="geometry" />
        </mxCell>
        <mxCell id="Nmrm6_6fbguC6e-CNsKx-35" value="AluCnt" style="text;html=1;strokeColor=none;fillColor=none;align=left;verticalAlign=middle;whiteSpace=wrap;rounded=0;fontSize=6;direction=west;rotation=90;" parent="1" vertex="1">
          <mxGeometry x="737" y="520.63" width="21" height="9.5" as="geometry" />
        </mxCell>
        <mxCell id="YAo5oDD9OdVNBZsx1TzP-10" value="CONCATENADOR 20 bits" style="rounded=0;whiteSpace=wrap;html=1;fontFamily=Helvetica;fontSize=6;fontColor=default;fontStyle=1" parent="1" vertex="1">
          <mxGeometry x="681.75" y="710.25" width="159.85" height="20" as="geometry" />
        </mxCell>
        <mxCell id="YAo5oDD9OdVNBZsx1TzP-14" value="In 01" style="text;html=1;strokeColor=none;fillColor=none;align=left;verticalAlign=middle;whiteSpace=wrap;rounded=0;fontSize=6;fontStyle=1" parent="1" vertex="1">
          <mxGeometry x="683.1" y="710.25" width="40" height="20" as="geometry" />
        </mxCell>
        <mxCell id="xivKOrNHY8w8_7kdoRQL-21" style="edgeStyle=orthogonalEdgeStyle;shape=connector;rounded=0;orthogonalLoop=1;jettySize=auto;html=1;labelBackgroundColor=default;strokeColor=default;fontFamily=Helvetica;fontSize=11;fontColor=default;endArrow=none;endFill=0;" edge="1" parent="1" source="YAo5oDD9OdVNBZsx1TzP-15">
          <mxGeometry relative="1" as="geometry">
            <mxPoint x="908" y="720.25" as="targetPoint" />
          </mxGeometry>
        </mxCell>
        <mxCell id="YAo5oDD9OdVNBZsx1TzP-15" value="Data Out" style="text;html=1;strokeColor=none;fillColor=none;align=center;verticalAlign=middle;whiteSpace=wrap;rounded=0;fontSize=6;fontStyle=1" parent="1" vertex="1">
          <mxGeometry x="812.6" y="710.25" width="30" height="20" as="geometry" />
        </mxCell>
        <mxCell id="YAo5oDD9OdVNBZsx1TzP-17" value="31:20" style="text;html=1;strokeColor=none;fillColor=none;align=right;verticalAlign=middle;whiteSpace=wrap;rounded=0;fontSize=6;" parent="1" vertex="1">
          <mxGeometry x="13.75" y="495.5" width="30" height="9.5" as="geometry" />
        </mxCell>
        <mxCell id="YAo5oDD9OdVNBZsx1TzP-48" value="&lt;br&gt;" style="edgeStyle=orthogonalEdgeStyle;shape=connector;rounded=0;orthogonalLoop=1;jettySize=auto;html=1;exitX=1;exitY=0;exitDx=0;exitDy=0;labelBackgroundColor=default;strokeColor=default;fontFamily=Helvetica;fontSize=11;fontColor=default;endArrow=none;endFill=0;" parent="1" edge="1">
          <mxGeometry relative="1" as="geometry">
            <mxPoint x="114" y="459" as="targetPoint" />
            <mxPoint x="114" y="487" as="sourcePoint" />
          </mxGeometry>
        </mxCell>
        <mxCell id="YAo5oDD9OdVNBZsx1TzP-49" value="Jump" style="text;html=1;strokeColor=none;fillColor=none;align=left;verticalAlign=middle;whiteSpace=wrap;rounded=0;fontSize=6;direction=west;rotation=90;" parent="1" vertex="1">
          <mxGeometry x="102" y="467.5" width="31" height="9.5" as="geometry" />
        </mxCell>
        <mxCell id="YAo5oDD9OdVNBZsx1TzP-51" value="alu answer zero" style="text;html=1;strokeColor=none;fillColor=none;align=left;verticalAlign=middle;whiteSpace=wrap;rounded=0;fontSize=6;" parent="1" vertex="1">
          <mxGeometry x="938" y="522.13" width="45" height="9.5" as="geometry" />
        </mxCell>
        <mxCell id="YAo5oDD9OdVNBZsx1TzP-53" value="RegWrite" style="text;html=1;strokeColor=none;fillColor=none;align=left;verticalAlign=middle;whiteSpace=wrap;rounded=0;fontSize=6;fontStyle=1" parent="1" vertex="1">
          <mxGeometry x="471.9899999999999" y="250.37" width="30" height="20" as="geometry" />
        </mxCell>
        <mxCell id="YAo5oDD9OdVNBZsx1TzP-55" value="jal result" style="text;html=1;strokeColor=none;fillColor=none;align=left;verticalAlign=middle;whiteSpace=wrap;rounded=0;fontSize=6;" parent="1" vertex="1">
          <mxGeometry x="842.6" y="710.25" width="41" height="9.5" as="geometry" />
        </mxCell>
        <mxCell id="MrLewttdtzG3x62YjvRa-4" value="pc next address" style="text;html=1;strokeColor=none;fillColor=none;align=left;verticalAlign=middle;whiteSpace=wrap;rounded=0;fontSize=6;rotation=-90;" parent="1" vertex="1">
          <mxGeometry x="-7.75" y="524" width="51.25" height="9.5" as="geometry" />
        </mxCell>
        <mxCell id="xiuAWrNR_r8wsV3JLnLo-3" value="PcWE" style="text;html=1;strokeColor=none;fillColor=none;align=left;verticalAlign=middle;whiteSpace=wrap;rounded=0;fontSize=6;fontStyle=1" parent="1" vertex="1">
          <mxGeometry x="471.5899999999999" y="230.37" width="30" height="20" as="geometry" />
        </mxCell>
        <mxCell id="xiuAWrNR_r8wsV3JLnLo-4" style="edgeStyle=orthogonalEdgeStyle;shape=connector;rounded=0;orthogonalLoop=1;jettySize=auto;html=1;labelBackgroundColor=default;strokeColor=default;fontFamily=Helvetica;fontSize=11;fontColor=default;endArrow=none;endFill=0;align=right;" parent="1" edge="1">
          <mxGeometry relative="1" as="geometry">
            <mxPoint x="455.4549999999999" y="243.365" as="targetPoint" />
            <mxPoint x="471.5799999999999" y="243.61" as="sourcePoint" />
          </mxGeometry>
        </mxCell>
        <mxCell id="xiuAWrNR_r8wsV3JLnLo-5" value="0:0" style="text;html=1;strokeColor=none;fillColor=none;align=right;verticalAlign=middle;whiteSpace=wrap;rounded=0;fontSize=6;direction=west;rotation=0;" parent="1" vertex="1">
          <mxGeometry x="455.5899999999999" y="236.37" width="16" height="7.25" as="geometry" />
        </mxCell>
        <mxCell id="KsHirrmHPgnzJLZAVoZJ-1" value="31:20" style="text;html=1;strokeColor=none;fillColor=none;align=right;verticalAlign=middle;whiteSpace=wrap;rounded=0;fontSize=6;" parent="1" vertex="1">
          <mxGeometry x="644.4" y="710.25" width="35" height="9.5" as="geometry" />
        </mxCell>
        <mxCell id="2e7VlRh2Dpikmwv9G9NX-15" value="" style="group" parent="1" vertex="1" connectable="0">
          <mxGeometry x="315.125" y="409.36500000000007" width="16.129999999999995" height="379.43999999999994" as="geometry" />
        </mxCell>
        <mxCell id="2e7VlRh2Dpikmwv9G9NX-2" value="Decodificador" style="rounded=0;whiteSpace=wrap;html=1;rotation=90;horizontal=1;align=center;" parent="2e7VlRh2Dpikmwv9G9NX-15" vertex="1">
          <mxGeometry x="-181.655" y="181.65499999999997" width="379.44" height="16.13" as="geometry" />
        </mxCell>
        <mxCell id="2e7VlRh2Dpikmwv9G9NX-3" value="" style="triangle;whiteSpace=wrap;html=1;rotation=-90;" parent="2e7VlRh2Dpikmwv9G9NX-15" vertex="1">
          <mxGeometry x="2.2749999999999773" y="365.06999999999994" width="11.58" height="15.25" as="geometry" />
        </mxCell>
        <mxCell id="2e7VlRh2Dpikmwv9G9NX-16" value="" style="group" parent="1" vertex="1" connectable="0">
          <mxGeometry x="598.005" y="409.99500000000006" width="16.129999999999995" height="379.43999999999994" as="geometry" />
        </mxCell>
        <mxCell id="xivKOrNHY8w8_7kdoRQL-16" style="edgeStyle=orthogonalEdgeStyle;shape=connector;rounded=0;orthogonalLoop=1;jettySize=auto;html=1;labelBackgroundColor=default;strokeColor=default;fontFamily=Helvetica;fontSize=11;fontColor=default;endArrow=none;endFill=0;" edge="1" parent="2e7VlRh2Dpikmwv9G9NX-16" source="2e7VlRh2Dpikmwv9G9NX-17">
          <mxGeometry relative="1" as="geometry">
            <mxPoint x="123.28532258064513" y="167.10177419354835" as="targetPoint" />
          </mxGeometry>
        </mxCell>
        <mxCell id="xivKOrNHY8w8_7kdoRQL-17" style="edgeStyle=orthogonalEdgeStyle;shape=connector;rounded=0;orthogonalLoop=1;jettySize=auto;html=1;labelBackgroundColor=default;strokeColor=default;fontFamily=Helvetica;fontSize=11;fontColor=default;endArrow=none;endFill=0;" edge="1" parent="2e7VlRh2Dpikmwv9G9NX-16" source="2e7VlRh2Dpikmwv9G9NX-17">
          <mxGeometry relative="1" as="geometry">
            <mxPoint x="123.60790322580635" y="125.97274193548384" as="targetPoint" />
          </mxGeometry>
        </mxCell>
        <mxCell id="xivKOrNHY8w8_7kdoRQL-19" style="edgeStyle=orthogonalEdgeStyle;shape=connector;rounded=0;orthogonalLoop=1;jettySize=auto;html=1;labelBackgroundColor=default;strokeColor=default;fontFamily=Helvetica;fontSize=11;fontColor=default;endArrow=none;endFill=0;" edge="1" parent="2e7VlRh2Dpikmwv9G9NX-16" source="2e7VlRh2Dpikmwv9G9NX-17">
          <mxGeometry relative="1" as="geometry">
            <mxPoint x="105.75362068965535" y="255.15442528735633" as="targetPoint" />
          </mxGeometry>
        </mxCell>
        <mxCell id="2e7VlRh2Dpikmwv9G9NX-17" value="Executor" style="rounded=0;whiteSpace=wrap;html=1;rotation=90;horizontal=1;align=center;" parent="2e7VlRh2Dpikmwv9G9NX-16" vertex="1">
          <mxGeometry x="-181.655" y="181.65499999999997" width="379.44" height="16.13" as="geometry" />
        </mxCell>
        <mxCell id="2e7VlRh2Dpikmwv9G9NX-18" value="" style="triangle;whiteSpace=wrap;html=1;rotation=-90;" parent="2e7VlRh2Dpikmwv9G9NX-16" vertex="1">
          <mxGeometry x="2.2749999999999773" y="365.06999999999994" width="11.58" height="15.25" as="geometry" />
        </mxCell>
        <mxCell id="2e7VlRh2Dpikmwv9G9NX-19" value="" style="group" parent="1" vertex="1" connectable="0">
          <mxGeometry x="908.005" y="409.99500000000006" width="16.129999999999995" height="379.43999999999994" as="geometry" />
        </mxCell>
        <mxCell id="xivKOrNHY8w8_7kdoRQL-24" style="edgeStyle=orthogonalEdgeStyle;shape=connector;rounded=0;orthogonalLoop=1;jettySize=auto;html=1;labelBackgroundColor=default;strokeColor=default;fontFamily=Helvetica;fontSize=11;fontColor=default;endArrow=none;endFill=0;" edge="1" parent="2e7VlRh2Dpikmwv9G9NX-19" source="2e7VlRh2Dpikmwv9G9NX-20">
          <mxGeometry relative="1" as="geometry">
            <mxPoint x="-134.69730769230785" y="146.158846153846" as="targetPoint" />
          </mxGeometry>
        </mxCell>
        <mxCell id="2e7VlRh2Dpikmwv9G9NX-20" value="Busca Mem" style="rounded=0;whiteSpace=wrap;html=1;rotation=90;horizontal=1;align=center;" parent="2e7VlRh2Dpikmwv9G9NX-19" vertex="1">
          <mxGeometry x="-181.655" y="181.65499999999997" width="379.44" height="16.13" as="geometry" />
        </mxCell>
        <mxCell id="2e7VlRh2Dpikmwv9G9NX-21" value="" style="triangle;whiteSpace=wrap;html=1;rotation=-90;" parent="2e7VlRh2Dpikmwv9G9NX-19" vertex="1">
          <mxGeometry x="2.2749999999999773" y="365.06999999999994" width="11.58" height="15.25" as="geometry" />
        </mxCell>
        <mxCell id="2e7VlRh2Dpikmwv9G9NX-22" value="" style="group" parent="1" vertex="1" connectable="0">
          <mxGeometry x="1148.005" y="409.99500000000006" width="16.129999999999995" height="379.43999999999994" as="geometry" />
        </mxCell>
        <mxCell id="xivKOrNHY8w8_7kdoRQL-32" style="edgeStyle=orthogonalEdgeStyle;shape=connector;rounded=0;orthogonalLoop=1;jettySize=auto;html=1;labelBackgroundColor=default;strokeColor=default;fontFamily=Helvetica;fontSize=11;fontColor=default;endArrow=none;endFill=0;" edge="1" parent="2e7VlRh2Dpikmwv9G9NX-22" source="2e7VlRh2Dpikmwv9G9NX-23">
          <mxGeometry relative="1" as="geometry">
            <mxPoint x="90.62462962962945" y="197.67166666666657" as="targetPoint" />
          </mxGeometry>
        </mxCell>
        <mxCell id="xivKOrNHY8w8_7kdoRQL-33" style="edgeStyle=orthogonalEdgeStyle;shape=connector;rounded=0;orthogonalLoop=1;jettySize=auto;html=1;labelBackgroundColor=default;strokeColor=default;fontFamily=Helvetica;fontSize=11;fontColor=default;endArrow=none;endFill=0;" edge="1" parent="2e7VlRh2Dpikmwv9G9NX-22" source="2e7VlRh2Dpikmwv9G9NX-23">
          <mxGeometry relative="1" as="geometry">
            <mxPoint x="90.25425925925902" y="207.67166666666657" as="targetPoint" />
          </mxGeometry>
        </mxCell>
        <mxCell id="2e7VlRh2Dpikmwv9G9NX-23" value="Escreve Result" style="rounded=0;whiteSpace=wrap;html=1;rotation=90;horizontal=1;align=center;" parent="2e7VlRh2Dpikmwv9G9NX-22" vertex="1">
          <mxGeometry x="-181.655" y="181.65499999999997" width="379.44" height="16.13" as="geometry" />
        </mxCell>
        <mxCell id="2e7VlRh2Dpikmwv9G9NX-24" value="" style="triangle;whiteSpace=wrap;html=1;rotation=-90;" parent="2e7VlRh2Dpikmwv9G9NX-22" vertex="1">
          <mxGeometry x="2.2749999999999773" y="365.06999999999994" width="11.58" height="15.25" as="geometry" />
        </mxCell>
        <mxCell id="xivKOrNHY8w8_7kdoRQL-6" style="edgeStyle=orthogonalEdgeStyle;shape=connector;rounded=0;orthogonalLoop=1;jettySize=auto;html=1;entryX=0;entryY=0.5;entryDx=0;entryDy=0;labelBackgroundColor=default;strokeColor=default;fontFamily=Helvetica;fontSize=11;fontColor=default;endArrow=none;endFill=0;" edge="1" parent="1" source="2e7VlRh2Dpikmwv9G9NX-2" target="Gvlh0brdfd21mCTL1ysy-4">
          <mxGeometry relative="1" as="geometry" />
        </mxCell>
        <mxCell id="xivKOrNHY8w8_7kdoRQL-7" style="edgeStyle=orthogonalEdgeStyle;shape=connector;rounded=0;orthogonalLoop=1;jettySize=auto;html=1;exitX=0.5;exitY=0;exitDx=0;exitDy=0;entryX=1;entryY=0;entryDx=0;entryDy=0;labelBackgroundColor=default;strokeColor=default;fontFamily=Helvetica;fontSize=11;fontColor=default;endArrow=none;endFill=0;" edge="1" parent="1" source="2e7VlRh2Dpikmwv9G9NX-2" target="lDqUrehN1HOp68E280Si-18">
          <mxGeometry relative="1" as="geometry">
            <Array as="points">
              <mxPoint x="351" y="599" />
              <mxPoint x="351" y="522" />
            </Array>
          </mxGeometry>
        </mxCell>
        <mxCell id="xivKOrNHY8w8_7kdoRQL-9" style="edgeStyle=orthogonalEdgeStyle;shape=connector;rounded=0;orthogonalLoop=1;jettySize=auto;html=1;entryX=1;entryY=0.75;entryDx=0;entryDy=0;labelBackgroundColor=default;strokeColor=default;fontFamily=Helvetica;fontSize=11;fontColor=default;endArrow=none;endFill=0;exitX=0.499;exitY=-0.039;exitDx=0;exitDy=0;exitPerimeter=0;" edge="1" parent="1" source="2e7VlRh2Dpikmwv9G9NX-2" target="lDqUrehN1HOp68E280Si-26">
          <mxGeometry relative="1" as="geometry">
            <mxPoint x="358" y="600" as="sourcePoint" />
            <Array as="points">
              <mxPoint x="332" y="600" />
              <mxPoint x="351" y="600" />
              <mxPoint x="351" y="708" />
            </Array>
          </mxGeometry>
        </mxCell>
        <mxCell id="xivKOrNHY8w8_7kdoRQL-10" style="edgeStyle=orthogonalEdgeStyle;shape=connector;rounded=0;orthogonalLoop=1;jettySize=auto;html=1;exitX=0.5;exitY=0;exitDx=0;exitDy=0;labelBackgroundColor=default;strokeColor=default;fontFamily=Helvetica;fontSize=11;fontColor=default;endArrow=none;endFill=0;entryX=0.939;entryY=1;entryDx=0;entryDy=0;entryPerimeter=0;" edge="1" parent="1" source="2e7VlRh2Dpikmwv9G9NX-2" target="2e7VlRh2Dpikmwv9G9NX-17">
          <mxGeometry relative="1" as="geometry">
            <mxPoint x="518" y="760" as="targetPoint" />
            <Array as="points">
              <mxPoint x="351" y="599" />
              <mxPoint x="351" y="766" />
            </Array>
          </mxGeometry>
        </mxCell>
        <mxCell id="xivKOrNHY8w8_7kdoRQL-18" style="edgeStyle=orthogonalEdgeStyle;shape=connector;rounded=0;orthogonalLoop=1;jettySize=auto;html=1;entryX=0;entryY=0.5;entryDx=0;entryDy=0;labelBackgroundColor=default;strokeColor=default;fontFamily=Helvetica;fontSize=11;fontColor=default;endArrow=none;endFill=0;" edge="1" parent="1" source="2e7VlRh2Dpikmwv9G9NX-17" target="4w0Ha68qAj18L9jSZj2k-8">
          <mxGeometry relative="1" as="geometry" />
        </mxCell>
        <mxCell id="xivKOrNHY8w8_7kdoRQL-20" style="edgeStyle=orthogonalEdgeStyle;shape=connector;rounded=0;orthogonalLoop=1;jettySize=auto;html=1;entryX=0;entryY=0.5;entryDx=0;entryDy=0;labelBackgroundColor=default;strokeColor=default;fontFamily=Helvetica;fontSize=11;fontColor=default;endArrow=none;endFill=0;" edge="1" parent="1" source="2e7VlRh2Dpikmwv9G9NX-17" target="YAo5oDD9OdVNBZsx1TzP-10">
          <mxGeometry relative="1" as="geometry" />
        </mxCell>
        <mxCell id="xivKOrNHY8w8_7kdoRQL-23" style="edgeStyle=orthogonalEdgeStyle;shape=connector;rounded=0;orthogonalLoop=1;jettySize=auto;html=1;labelBackgroundColor=default;strokeColor=default;fontFamily=Helvetica;fontSize=11;fontColor=default;endArrow=none;endFill=0;exitX=0.946;exitY=-0.02;exitDx=0;exitDy=0;exitPerimeter=0;dashed=1;" edge="1" parent="1">
          <mxGeometry relative="1" as="geometry">
            <mxPoint x="908" y="766" as="targetPoint" />
            <mxPoint x="614.4576000000002" y="764.9452400000001" as="sourcePoint" />
            <Array as="points">
              <mxPoint x="615" y="766" />
              <mxPoint x="761" y="766" />
            </Array>
          </mxGeometry>
        </mxCell>
        <mxCell id="xivKOrNHY8w8_7kdoRQL-26" style="edgeStyle=orthogonalEdgeStyle;shape=connector;rounded=0;orthogonalLoop=1;jettySize=auto;html=1;labelBackgroundColor=default;strokeColor=default;fontFamily=Helvetica;fontSize=11;fontColor=default;endArrow=none;endFill=0;exitX=0.896;exitY=0.027;exitDx=0;exitDy=0;exitPerimeter=0;" edge="1" parent="1" source="2e7VlRh2Dpikmwv9G9NX-17">
          <mxGeometry relative="1" as="geometry">
            <mxPoint x="908" y="750" as="targetPoint" />
            <Array as="points" />
          </mxGeometry>
        </mxCell>
        <mxCell id="xivKOrNHY8w8_7kdoRQL-27" style="edgeStyle=orthogonalEdgeStyle;shape=connector;rounded=0;orthogonalLoop=1;jettySize=auto;html=1;entryX=0;entryY=0.5;entryDx=0;entryDy=0;labelBackgroundColor=default;strokeColor=default;fontFamily=Helvetica;fontSize=11;fontColor=default;endArrow=none;endFill=0;" edge="1" parent="1" target="Gvlh0brdfd21mCTL1ysy-57">
          <mxGeometry relative="1" as="geometry">
            <mxPoint x="925" y="607" as="sourcePoint" />
            <Array as="points" />
          </mxGeometry>
        </mxCell>
        <mxCell id="xivKOrNHY8w8_7kdoRQL-28" style="edgeStyle=orthogonalEdgeStyle;shape=connector;rounded=0;orthogonalLoop=1;jettySize=auto;html=1;entryX=0;entryY=0.5;entryDx=0;entryDy=0;labelBackgroundColor=default;strokeColor=default;fontFamily=Helvetica;fontSize=11;fontColor=default;endArrow=none;endFill=0;exitX=0.567;exitY=-0.046;exitDx=0;exitDy=0;exitPerimeter=0;" edge="1" parent="1" source="2e7VlRh2Dpikmwv9G9NX-20" target="Gvlh0brdfd21mCTL1ysy-58">
          <mxGeometry relative="1" as="geometry">
            <Array as="points">
              <mxPoint x="925" y="624" />
              <mxPoint x="967" y="624" />
            </Array>
          </mxGeometry>
        </mxCell>
        <mxCell id="xivKOrNHY8w8_7kdoRQL-29" style="edgeStyle=orthogonalEdgeStyle;shape=connector;rounded=0;orthogonalLoop=1;jettySize=auto;html=1;labelBackgroundColor=default;strokeColor=default;fontFamily=Helvetica;fontSize=11;fontColor=default;endArrow=none;endFill=0;exitX=0.939;exitY=0.067;exitDx=0;exitDy=0;exitPerimeter=0;entryX=0.948;entryY=1.047;entryDx=0;entryDy=0;entryPerimeter=0;dashed=1;" edge="1" parent="1">
          <mxGeometry relative="1" as="geometry">
            <mxPoint x="924.0542899999998" y="766.2891600000003" as="sourcePoint" />
            <mxPoint x="1148.2468900000003" y="769.70412" as="targetPoint" />
            <Array as="points">
              <mxPoint x="924" y="770" />
              <mxPoint x="1147" y="770" />
            </Array>
          </mxGeometry>
        </mxCell>
        <mxCell id="xivKOrNHY8w8_7kdoRQL-31" style="edgeStyle=orthogonalEdgeStyle;shape=connector;rounded=0;orthogonalLoop=1;jettySize=auto;html=1;labelBackgroundColor=default;strokeColor=default;fontFamily=Helvetica;fontSize=11;fontColor=default;endArrow=none;endFill=0;entryX=0;entryY=0.5;entryDx=0;entryDy=0;" edge="1" parent="1" source="2e7VlRh2Dpikmwv9G9NX-23" target="4w0Ha68qAj18L9jSZj2k-17">
          <mxGeometry relative="1" as="geometry">
            <mxPoint x="1238" y="599.715" as="targetPoint" />
            <Array as="points" />
          </mxGeometry>
        </mxCell>
        <mxCell id="xivKOrNHY8w8_7kdoRQL-34" style="edgeStyle=orthogonalEdgeStyle;shape=connector;rounded=0;orthogonalLoop=1;jettySize=auto;html=1;entryX=-0.004;entryY=0.4;entryDx=0;entryDy=0;entryPerimeter=0;labelBackgroundColor=default;strokeColor=default;fontFamily=Helvetica;fontSize=11;fontColor=default;endArrow=none;endFill=0;" edge="1" parent="1" source="2e7VlRh2Dpikmwv9G9NX-23" target="4w0Ha68qAj18L9jSZj2k-20">
          <mxGeometry relative="1" as="geometry" />
        </mxCell>
        <mxCell id="xivKOrNHY8w8_7kdoRQL-37" style="edgeStyle=orthogonalEdgeStyle;shape=connector;rounded=0;orthogonalLoop=1;jettySize=auto;html=1;labelBackgroundColor=default;strokeColor=default;fontFamily=Helvetica;fontSize=11;fontColor=default;endArrow=none;endFill=0;exitX=0.948;exitY=0.03;exitDx=0;exitDy=0;exitPerimeter=0;entryX=1;entryY=1;entryDx=0;entryDy=0;dashed=1;" edge="1" parent="1" source="2e7VlRh2Dpikmwv9G9NX-23" target="lDqUrehN1HOp68E280Si-28">
          <mxGeometry relative="1" as="geometry">
            <mxPoint x="798" y="840" as="targetPoint" />
            <Array as="points">
              <mxPoint x="1178" y="770" />
              <mxPoint x="1178" y="800" />
              <mxPoint x="378" y="800" />
              <mxPoint x="378" y="545" />
            </Array>
          </mxGeometry>
        </mxCell>
        <mxCell id="xivKOrNHY8w8_7kdoRQL-39" style="edgeStyle=orthogonalEdgeStyle;shape=connector;rounded=0;orthogonalLoop=1;jettySize=auto;html=1;entryX=1.044;entryY=1.074;entryDx=0;entryDy=0;entryPerimeter=0;labelBackgroundColor=default;strokeColor=default;fontFamily=Helvetica;fontSize=11;fontColor=default;endArrow=none;endFill=0;exitX=0.322;exitY=-0.005;exitDx=0;exitDy=0;exitPerimeter=0;" edge="1" parent="1" source="2e7VlRh2Dpikmwv9G9NX-20" target="YAo5oDD9OdVNBZsx1TzP-51">
          <mxGeometry relative="1" as="geometry">
            <Array as="points">
              <mxPoint x="944" y="532" />
              <mxPoint x="985" y="532" />
            </Array>
          </mxGeometry>
        </mxCell>
        <mxCell id="xivKOrNHY8w8_7kdoRQL-41" style="edgeStyle=orthogonalEdgeStyle;shape=connector;rounded=0;orthogonalLoop=1;jettySize=auto;html=1;labelBackgroundColor=default;strokeColor=default;fontFamily=Helvetica;fontSize=11;fontColor=default;endArrow=none;endFill=0;exitX=0.852;exitY=0.089;exitDx=0;exitDy=0;exitPerimeter=0;" edge="1" parent="1">
          <mxGeometry relative="1" as="geometry">
            <mxPoint x="923.6994299999999" y="733.2778799999999" as="sourcePoint" />
            <mxPoint x="1149" y="750" as="targetPoint" />
            <Array as="points">
              <mxPoint x="924" y="750" />
              <mxPoint x="1037" y="750" />
              <mxPoint x="1149" y="751" />
            </Array>
          </mxGeometry>
        </mxCell>
        <mxCell id="xivKOrNHY8w8_7kdoRQL-43" style="edgeStyle=orthogonalEdgeStyle;shape=connector;rounded=0;orthogonalLoop=1;jettySize=auto;html=1;labelBackgroundColor=default;strokeColor=default;fontFamily=Helvetica;fontSize=11;fontColor=default;endArrow=none;endFill=0;entryX=1;entryY=1;entryDx=0;entryDy=0;exitX=0.95;exitY=-0.074;exitDx=0;exitDy=0;exitPerimeter=0;dashed=1;" edge="1" parent="1" source="2e7VlRh2Dpikmwv9G9NX-2" target="YAo5oDD9OdVNBZsx1TzP-17">
          <mxGeometry relative="1" as="geometry">
            <mxPoint x="358" y="610" as="targetPoint" />
            <Array as="points">
              <mxPoint x="358" y="770" />
              <mxPoint x="358" y="820" />
              <mxPoint x="22" y="820" />
              <mxPoint x="22" y="505" />
            </Array>
          </mxGeometry>
        </mxCell>
      </root>
    </mxGraphModel>
  </diagram>
</mxfile>
